<?xml version="1.0" encoding="iso-8859-1"?>
<!-- Uploaded to: SVG Repo, www.svgrepo.com, Generator: SVG Repo Mixer Tools -->
<svg version="1.1" id="Layer_1" xmlns="http://www.w3.org/2000/svg" xmlns:xlink="http://www.w3.org/1999/xlink" 
	 viewBox="0 0 512 512" xml:space="preserve">
<circle style="fill:#E6F3FF;" cx="256" cy="256" r="256"/>
<path style="fill:#CFDBE6;" d="M315.871,504.927L76.857,265.416l22.154-14.934l28.272-33.558l97.671,97.671l48.607-80.112
	l-28.691-28.941l40.281-36.133l66.239-62.817l160.365,160.365c-2.632,61.816-27.536,122.861-74.735,170.06
	C402.373,471.666,360.267,494.294,315.871,504.927z"/>
<polygon style="fill:#2C9984;" points="209.017,358.864 96.58,246.427 107.551,235.456 205.936,333.841 306.238,166.676 
	319.54,174.658 "/>
<circle style="fill:#31BAFD;" cx="207.472" cy="346.35" r="35.137"/>
<path style="fill:#2B9ED8;" d="M242.614,346.353c0-19.32-15.596-34.987-34.883-35.125v70.249
	C227.019,381.34,242.614,365.673,242.614,346.353z"/>
<circle style="fill:#31BAFD;" cx="102.072" cy="240.933" r="35.137"/>
<path style="fill:#2B9ED8;" d="M102.066,205.803c-0.217,0-0.426,0.029-0.641,0.033v70.21c0.215,0.003,0.426,0.033,0.641,0.033
	c19.406,0,35.137-15.731,35.137-35.137S121.472,205.803,102.066,205.803z"/>
<rect x="343.036" y="191.628" transform="matrix(-0.7071 0.7071 -0.7071 -0.7071 749.51 109.2078)" style="fill:#F1543F;" width="18.203" height="36.409"/>
<rect x="344.224" y="194.511" transform="matrix(-0.7071 0.7071 -0.7071 -0.7071 746.629 116.1673)" style="fill:#C1321F;" width="10.062" height="36.409"/>
<circle style="fill:#324A5E;" cx="296.357" cy="154.065" r="72.818"/>
<path style="fill:#2B3B4E;" d="M245.567,101.909c-0.231,0.224-0.469,0.434-0.696,0.662c-28.436,28.436-28.436,74.54,0,102.974
	c28.436,28.436,74.538,28.436,102.974,0c0.228-0.228,0.438-0.467,0.662-0.696L245.567,101.909z"/>
<circle style="fill:#84DBFF;" cx="296.357" cy="154.065" r="54.61"/>
<path style="fill:#31BAFD;" d="M258.439,114.779c-0.231,0.222-0.469,0.434-0.696,0.664c-21.326,21.326-21.326,55.905,0,77.231
	s55.905,21.326,77.231,0c0.228-0.228,0.44-0.467,0.662-0.698L258.439,114.779z"/>
<path style="fill:#FD8469;" d="M446.985,286.611l-16.382,16.382c-3.051,3.051-8.001,3.051-11.052,0l-66.179-66.179
	c-3.051-3.051-3.051-8.001,0-11.052l16.382-16.382c3.051-3.051,8.001-3.051,11.052,0l66.179,66.179
	C450.036,278.611,450.036,283.56,446.985,286.611z"/>
<path style="fill:#FC6F58;" d="M361.396,217.736l-8.027,8.027c-3.051,3.053-3.051,8.001,0,11.052l66.179,66.179
	c3.051,3.051,8.001,3.051,11.052,0l8.026-8.027L361.396,217.736z"/>
</svg>